HIERARCHY
ROOT Hips
{
    OFFSET 0.000000 0.000000 0.000000
    CHANNELS 6 Xposition Yposition Zposition Zrotation Xrotation Yrotation
        JOINT Chest
        {
            OFFSET -0.000000 31.935503 -0.000000
            CHANNELS 3 Zrotation Xrotation Yrotation
            JOINT Neck
            {
                OFFSET -0.000000 23.713140 0.000000
                CHANNELS 3 Zrotation Xrotation Yrotation
                JOINT Head
                {
                    OFFSET -0.000000 10.938888 0.000000
                    CHANNELS 3 Zrotation Xrotation Yrotation
                    End Site
                    {
                        OFFSET -0.000000 16.905556 0.000000
                    }
                }
            }
            JOINT LeftCollar
            {
                OFFSET -0.000000 23.713140 0.000000
                CHANNELS 3 Zrotation Xrotation Yrotation
                JOINT LeftShoulder
                {
                    OFFSET 19.888887 -0.000000 0.000000
                    CHANNELS 3 Zrotation Xrotation Yrotation
                    JOINT LeftElbow
                    {
                        OFFSET 23.906332 0.000000 0.000000
                        CHANNELS 3 Zrotation Xrotation Yrotation
                        JOINT LeftWrist
                        {
                            OFFSET 25.116924 0.000000 0.000000
                            CHANNELS 3 Zrotation Xrotation Yrotation
                            End Site
                            {
                                OFFSET 0.000000 -14.916667 0.000000
                            }
                        }
                    }
                }
            }
            JOINT RightCollar
            {
                OFFSET -0.000000 23.713140 0.000000
                CHANNELS 3 Zrotation Xrotation Yrotation
                JOINT RightShoulder
                {
                    OFFSET -19.888887 0.000000 0.000000
                    CHANNELS 3 Zrotation Xrotation Yrotation
                    JOINT RightElbow
                    {
                        OFFSET -23.906332 0.000000 0.000000
                        CHANNELS 3 Zrotation Xrotation Yrotation
                        JOINT RightWrist
                        {
                            OFFSET -25.116924 0.000000 0.000000
                            CHANNELS 3 Zrotation Xrotation Yrotation
                            End Site
                            {
                                OFFSET -0.000000 -14.916667 0.000000
                            }
                        }
                    }
                }
            }
        }
    JOINT LeftHip
    {
        OFFSET 11.933332 0.000000 0.000000
        CHANNELS 3 Zrotation Xrotation Yrotation
        JOINT LeftKnee
        {
            OFFSET -0.000000 -35.996647 0.000000
            CHANNELS 3 Zrotation Xrotation Yrotation
            JOINT LeftAnkle
            {
                OFFSET -0.000000 -39.788193 0.000000
                CHANNELS 3 Zrotation Xrotation Yrotation
                End Site
                {
                    OFFSET -0.000000 -4.972222 16.905556
                }
            }
        }
    }
    JOINT RightHip
    {
        OFFSET -11.933332 0.000000 0.000000
        CHANNELS 3 Zrotation Xrotation Yrotation
        JOINT RightKnee
        {
            OFFSET -0.000000 -35.996647 0.000000
            CHANNELS 3 Zrotation Xrotation Yrotation
            JOINT RightAnkle
            {
                OFFSET -0.000000 -39.788193 0.000000
                CHANNELS 3 Zrotation Xrotation Yrotation
                End Site
                {
                    OFFSET -0.000000 -4.972222 16.905556
                }
            }
        }
    }
}
MOTION
Frames:    8
Frame Time:    0.010000
17.304144    84.413345    35.954178    -4.198419    -0.927991    -42.196972    4.017881    11.733514    8.485484    10.243894    3.849528    0.333088    -11.902010    -12.146822    -0.576956    -17.534473    1.887094    -12.114125    -43.517406    37.707851    -21.829205    21.917921    -12.914070    -62.713154    100.684334    23.509392    50.069748    9.920596    -1.351107    -15.625478    -9.181273    62.347897    90.371231    -12.479632    -4.950500    45.134361    -123.151436    4.471747    -20.621847    21.908789    -19.580376    6.213390    1.731044    26.222364    -17.653284    -11.821408    -3.000685    23.017939    -8.456670    -0.946670    -8.147973    7.596956    33.042812    -20.754116    1.683916    -16.046032    6.333987    
17.188862    84.816589    35.664185    -4.121994    -0.998594    -42.504665    3.902254    11.822716    8.227691    10.302301    3.853088    0.602584    -11.977880    -12.185922    -0.321731    -17.303478    1.857830    -12.086366    -44.438850    37.534416    -21.360649    20.966658    -12.383191    -63.049931    101.616119    23.022676    48.644871    9.680488    -1.329763    -15.690737    -7.471724    62.837376    88.538582    -11.989120    -4.780205    45.170406    -124.517990    3.412142    -18.304018    21.234058    -19.356907    6.625722    1.520494    27.230120    -17.850788    -11.749189    -3.971710    22.629925    -8.112775    -0.707017    -8.105531    7.153379    32.102379    -20.462843    1.204203    -15.247410    6.276807    
17.091003    85.240952    35.406208    -4.036032    -1.058798    -42.840866    3.796527    11.871146    8.023131    10.361767    3.877206    0.847930    -12.063150    -12.223333    -0.085728    -17.075764    1.849585    -12.071967    -45.284451    37.358372    -20.949333    19.987360    -11.818121    -63.322491    102.445465    22.631451    47.338604    9.437011    -1.296788    -15.775640    -6.355550    63.285919    87.280609    -11.583439    -4.641315    45.136570    -125.795876    2.513515    -16.555275    20.447577    -19.118925    6.923814    1.353607    28.313490    -18.244377    -11.589564    -4.912176    22.255726    -7.806020    -0.455420    -8.098115    6.698111    31.125053    -20.078485    0.710644    -14.387499    6.236270    
17.010311    85.680573    35.175873    -3.937893    -1.103639    -43.202747    3.700551    11.875196    7.868313    10.431971    3.907459    1.074994    -12.169426    -12.243920    0.132487    -16.870956    1.760592    -12.060838    -46.031307    37.308411    -20.578257    19.114555    -11.359264    -63.543663    103.093048    22.369930    46.205173    9.188895    -1.272416    -15.892313    -6.007458    63.723080    86.789063    -11.364440    -4.599712    44.976490    -126.945045    1.801219    -15.400162    19.553118    -18.873501    7.093925    1.215061    29.435476    -18.698355    -11.281365    -5.757261    21.890432    -7.538362    -0.213264    -8.119331    6.249414    30.137138    -19.628134    0.207580    -13.476066    6.221334    
16.945972    86.128967    34.968727    -3.825725    -1.128697    -43.588524    3.614727    11.832458    7.760823    10.516885    3.929681    1.291684    -12.299888    -12.231415    0.340060    -16.650036    1.758681    -12.041486    -46.678089    37.247337    -20.340931    18.144754    -10.746320    -63.628399    103.762627    22.230453    45.243755    8.940101    -1.242402    -16.040983    -6.490519    64.144302    87.123711    -11.306091    -4.615683    44.714260    -128.028152    1.339379    -14.825298    18.558577    -18.626844    7.126785    1.086418    30.556328    -19.088400    -10.778886    -6.460337    21.527399    -7.308275    -0.000747    -8.158472    5.821528    29.163609    -19.140976    -0.301951    -12.525825    6.238660    
16.896667    86.579132    34.780205    -3.698122    -1.129744    -43.997597    3.540495    11.741735    7.698160    10.616526    3.927938    1.502578    -12.451533    -12.170628    0.543817    -16.430492    1.746976    -12.005648    -47.161228    37.309872    -20.249699    17.292486    -10.257500    -63.640675    104.288048    22.177544    44.466103    8.684959    -1.214678    -16.219296    -7.774508    64.551826    88.276413    -11.445413    -4.696754    44.328556    -129.026901    1.127925    -14.769380    17.476460    -18.385031    7.017760    0.947883    31.635096    -19.331347    -10.072944    -7.000938    21.172565    -7.111257    0.163684    -8.202177    5.424448    28.226454    -18.646221    -0.814523    -11.551571    6.292669    
16.860674    87.023674    34.605431    -3.553575    -1.102183    -44.431164    3.480583    11.601735    7.677952    10.725496    3.890116    1.713876    -12.617216    -12.050617    0.750323    -16.207573    1.734742    -11.944697    -47.516037    37.486187    -20.289419    16.497597    -9.781555    -63.539627    104.768860    22.174969    43.902344    8.420338    -1.183315    -16.416740    -9.740303    64.926941    90.138824    -11.729310    -4.830346    43.840313    -129.993530    1.178292    -15.127388    16.324472    -18.155272    6.768917    0.780999    32.631733    -19.407801    -9.202657    -7.387064    20.856152    -6.940322    0.262927    -8.235335    5.064198    27.343966    -18.171694    -1.327786    -10.569526    6.385902    
16.835985    87.454895    34.439369    -3.390476    -1.041421    -44.892097    3.439329    11.412388    7.698420    10.834456    3.807076    1.930432    -12.787052    -11.867290    0.967140    -15.993396    1.654625    -11.848535    -47.753971    37.841335    -20.424351    15.829210    -9.397346    -63.352058    105.166252    22.173195    43.553997    8.140616    -1.150928    -16.616825    -12.197672    65.255661    92.536423    -12.146585    -4.995575    43.259476    -130.893509    1.473192    -15.797997    15.124772    -17.946114    6.389422    0.573401    33.517319    -19.356115    -8.252859    -7.653205    20.616837    -6.787268    0.282188    -8.241332    4.744531    26.530138    -17.743322    -1.862908    -9.599637    6.522599    
